<!--?xml version="1.0" encoding="utf-8"?-->
<!-- Generator: Adobe Illustrator 18.1.1, SVG Export Plug-In . SVG Version: 6.00 Build 0)  -->

<svg version="1.1" id="_x32_" xmlns="http://www.w3.org/2000/svg" xmlns:xlink="http://www.w3.org/1999/xlink" x="0px" y="0px" viewBox="0 0 512 512" style="width: 256px; height: 256px; opacity: 1;" xml:space="preserve">
<style type="text/css">
	.st0{fill:#4B4B4B;}
</style>
<g>
	<path class="st0" d="M135.288,43.144v85.309v248.423c-16.582-6.093-36.179-7.908-56.37-4.002
		c-48.504,9.332-81.902,47.602-74.598,85.438c7.293,37.856,52.506,60.956,101,51.614c43.037-8.291,74.12-39.375,75.458-72.772h0.276
		V189.293l281.875-30.914v177.509c-16.593-6.082-36.169-7.877-56.36-3.981c-48.515,9.32-81.891,47.592-74.62,85.437
		c7.293,37.846,52.496,60.946,101.001,51.594c43.047-8.28,74.142-39.375,75.458-72.751h0.276v-308.7V0L135.288,43.144z
		 M462.928,132.148l-281.875,30.913v-37.613L462.928,90.49V132.148z" style="fill: rgb(255, 246, 235);"></path>
</g>
</svg>
