<svg xmlns="http://www.w3.org/2000/svg" viewBox="0 0 859.48 853.9"><defs><style>.cls-1{fill:#fff8f0;}.cls-2{fill:#f0810f;}</style></defs><g id="レイヤー_2" data-name="レイヤー 2"><g id="レイヤー_1-2" data-name="レイヤー 1"><path class="cls-1" d="M834.17,0H501.48a25.32,25.32,0,0,0-25.32,25.31V358a25.32,25.32,0,0,0,25.32,25.31H834.17A25.31,25.31,0,0,0,859.48,358V25.31A25.31,25.31,0,0,0,834.17,0ZM786.86,309.7H548.78V73.61H786.86Z"/><path class="cls-2" d="M358,0H25.31A25.31,25.31,0,0,0,0,25.31V358a25.31,25.31,0,0,0,25.31,25.31H358A25.32,25.32,0,0,0,383.32,358V25.31A25.31,25.31,0,0,0,358,0ZM310.7,309.7H72.62V73.61H310.7Z"/><path class="cls-1" d="M358,470.59H25.31A25.31,25.31,0,0,0,0,495.9V828.59A25.31,25.31,0,0,0,25.31,853.9H358a25.31,25.31,0,0,0,25.31-25.31V495.9A25.31,25.31,0,0,0,358,470.59ZM310.7,781.89H72.62V545.8H310.7Z"/><path class="cls-1" d="M834.17,470.59H501.48a25.32,25.32,0,0,0-25.32,25.31V828.59a25.32,25.32,0,0,0,25.32,25.31H834.17a25.31,25.31,0,0,0,25.31-25.31V495.9A25.31,25.31,0,0,0,834.17,470.59Zm-47.31,311.3H548.78V545.8H786.86Z"/></g></g></svg>